<svg width="160" height="160" viewBox="0 0 160 160" fill="none" xmlns="http://www.w3.org/2000/svg">
<path d="M80 0C17.2705 0 0 17.2308 0 80C0 142.769 17.0323 160 80 160C142.968 160 160 142.968 160 80C160 17.0323 142.73 0 80 0Z" fill="#CC0033"/>
<path d="M116.354 81.6054V108.692C116.354 109.4 115.727 110 114.964 110H101.557C100.822 110 100.195 109.4 100.195 108.692V86.2379C100.195 80.6517 98.451 77.8722 95.0175 77.8722C92.2653 77.8722 90.4123 78.9622 89.3495 81.1694C88.3413 83.4039 88.0688 86.4014 88.0688 90.5161V108.419C88.0688 109.128 87.2513 109.973 86.4611 109.973H74.3621C73.5991 109.973 72.7544 109.128 72.7544 108.419V50.05H88.9135V59.3968C88.9135 62.5032 88.096 71.85 88.096 71.85H88.7773C90.2215 69.67 91.1753 68.4165 93.2735 67.599C95.3173 66.6725 97.7153 66.2365 100.386 66.2365C103.356 66.2365 106.054 66.727 108.424 67.817C110.822 68.8525 112.73 70.542 114.147 72.8037C115.673 75.0382 116.354 78.0084 116.354 81.6054Z" fill="white"/>
<path d="M65.7784 66.4274C65.3424 66.3729 65.4514 66.4274 65.0154 66.4274C62.6447 66.4274 60.2194 67.1086 58.1212 68.5256C56.0774 69.8881 54.8512 71.4414 53.6522 73.4306H52.8892L50.6275 67.2176C50.464 66.6999 49.6465 66.4274 49.1015 66.4274H41.526C40.8175 66.4274 40 67.2721 40 67.9806V108.447C40 109.155 40.8175 110 41.526 110H52.8892C53.6249 110 54.4152 109.4 54.4152 108.692V87.6006C54.4152 85.1753 54.5787 83.4041 55.5597 82.3141C56.5679 81.1151 57.7669 80.3793 59.1022 80.0523C60.4919 79.6981 61.8272 79.5346 63.0262 79.5346C64.3069 79.5346 65.0971 79.5346 65.8056 79.6436C66.5141 79.6981 67.3316 79.5346 67.3316 78.8533V67.9534C67.3316 67.2721 66.4596 66.4546 65.8056 66.4001L65.7784 66.4274Z" fill="white"/>
</svg>
